<?xml version="1.0" encoding="UTF-8"?>
<svg width="60px" height="59px" viewBox="0 0 60 59" version="1.1" xmlns="http://www.w3.org/2000/svg" xmlns:xlink="http://www.w3.org/1999/xlink">
    <!-- Generator: Sketch 46.2 (44496) - http://www.bohemiancoding.com/sketch -->
    <title>Page 1</title>
    <desc>Created with Sketch.</desc>
    <defs>
        <polygon id="path-1" points="13.8112472 1.08420217e-19 0 1.08420217e-19 0 59 59.3428333 59 59.3428333 1.08420217e-19 13.8112472 1.08420217e-19 13.8112472 58.9996629 59.3426639 58.9996629 59.3426639 -0.000337142857 13.8112472 -0.000337142857"></polygon>
        <path d="M13.8112472,-0.000337142857 L21.2481639,22.4972057 C25.118275,22.4972057 27.9649417,22.83772 30.2016083,24.57232 C32.4399694,26.3456914 33.8073861,29.2535486 33.8073861,32.7244343 C33.8073861,38.6901771 30.8844694,42.04812 25.2690806,42.7291486 L37.6774972,58.9996629 L59.3426639,58.9996629 L59.3426639,-0.000337142857 L13.8112472,-0.000337142857 Z" id="path-3"></path>
    </defs>
    <g id="Symbols" stroke="none" stroke-width="1" fill="none" fill-rule="evenodd">
        <g id="footer" transform="translate(-1.000000, -45.000000)">
            <g id="Page-1" transform="translate(1.000000, 45.000000)">
                <g id="Group-13">
                    <path d="M27.5835222,33.2183486 C27.5835222,28.6500629 25.0418556,27.6689771 19.61455,27.6689771 L18.5148556,27.6689771 L18.5148556,38.3125771 L19.61455,38.3125771 C24.9283278,38.3142629 27.5835222,37.6736914 27.5835222,33.2183486" id="Fill-2" fill="#000000"></path>
                    <polygon id="Fill-1" fill="#000000" points="0 -0.000168571429 0 22.7637171 7.28441667 -0.000168571429"></polygon>
                    <polygon id="Fill-4" fill="#000000" points="18.1359778 58.9996629 30.8087278 58.9996629 18.8188389 42.9954914 18.1359778 42.9954914"></polygon>
                    <polygon id="Fill-6" fill="#000000" points="14.7213333 22.4604571 10.4716667 8.68142857 6.33722222 22.4604571"></polygon>
                    <mask id="mask-2" fill="white">
                        <use xlink:href="#path-1"></use>
                    </mask>
                    <g id="Clip-9"></g>
                    <mask id="mask-4" fill="white">
                        <use xlink:href="#path-3"></use>
                    </mask>
                    <use id="Fill-8" fill="#000000" xlink:href="#path-3"></use>
                    <polygon id="Fill-11" fill="#000000" points="12.4833111 28.72592 12.4833111 28.72592 4.43978333 28.72592 0.000338888889 43.1084343 0.000338888889 58.9996629 12.4833111 58.9996629"></polygon>
                </g>
            </g>
        </g>
    </g>
</svg>